<?xml version="1.0" encoding="utf-8"?>
<!-- Generator: Adobe Illustrator 28.2.0, SVG Export Plug-In . SVG Version: 6.00 Build 0)  -->
<svg version="1.1" id="Ebene_1" xmlns="http://www.w3.org/2000/svg" xmlns:xlink="http://www.w3.org/1999/xlink" x="0px" y="0px"
	 viewBox="0 0 191.9 183.13" style="enable-background:new 0 0 191.9 183.13;" xml:space="preserve">
<g>
	<g>
		<path d="M46.64,53.76c-3.1-5.22-9.04-8.12-15.06-7.03c-3.22,0.58-5.71,2.48-8.11,4.58c-2.72,2.37-5.23,4.99-7.48,7.82
			c-4.26,5.36-8,11.49-9.05,18.37c-0.97,6.3,0.6,12.8,5.72,16.94c4.14,3.34,9.34,4.72,14.37,6.1c4.69,1.28,9.73,2.54,13.06,6.1
			c3.68,3.93,3.53,9.57,2.57,14.63c-1.17,6.16-3.22,12.16-3.59,18.46c-0.81,13.98,10.43,24.65,22.09,30.4
			c6.41,3.17,13.62,5.13,20.81,4.57c6.47-0.51,12.5-3.01,17.34-7.35c4.48-4.02,7.54-9.53,8.12-15.56
			c0.55-5.68-1.58-11.26-1.32-16.94c0.09-2.03,0.66-4.01,2.31-5.19c2.3-1.63,5.47-1.24,7.99-0.58c5.19,1.35,9.61,4.79,13.86,7.95
			c4.42,3.28,8.92,6.6,14.23,8.28c5.96,1.88,12.49,1.06,17.88-2.07c5.52-3.2,9.49-8.71,10.49-15.04c1.03-6.53-0.67-13.24-4.98-18.3
			c-6.01-7.06-21.02-12.32-15.98-23.96c2.34-5.4,7.21-9.54,11.4-13.48c4.93-4.63,9.33-9.63,12.81-15.45
			c3.43-5.74,6-12.06,7.51-18.57c1.11-4.79,2.05-9.99,1.12-14.89c-0.91-4.79-4.13-8.46-8.65-10.2c-3.27-1.26-6.99-1.42-10.44-1.66
			c-3.97-0.28-7.96-0.3-11.92,0.06c-6.96,0.63-13.89,2.28-19.94,5.89c-5.75,3.43-10.29,8.41-12.74,14.67
			c-2.49,6.34-2.61,13.33-3.06,20.03c-0.42,6.26-1.06,13.16-4.9,18.38c-1.63,2.22-4.01,4.2-6.79,4.69
			c-2.81,0.49-5.62-0.87-7.79-2.55c-4.03-3.12-6.1-7.9-7.29-12.74c-1.35-5.51-1.66-11.22-2-16.86c-0.37-6.07-0.68-12.23-3.22-17.86
			c-2.56-5.67-8.06-10.6-14.58-10.43c-6.28,0.16-11.07,4.79-11.82,10.9c-0.65,5.27,1.15,10.61,2.05,15.75
			c0.83,4.69,1.22,10.14-2.83,13.51c-1.77,1.48-4.11,2.31-6.38,2.3c-1.08,0-2.2-0.15-3.19-0.64C48.08,56.18,47.3,54.89,46.64,53.76
			C45,51,40.68,53.51,42.32,56.29c1.75,2.96,4.07,5.24,7.54,5.88c2.96,0.55,5.92,0.14,8.67-1.05c5.5-2.39,8.44-7.6,8.66-13.46
			c0.19-5.31-1.46-10.5-2.33-15.69c-0.71-4.27-0.83-8.83,3.32-11.12c5.14-2.83,10.53,1.39,12.91,5.83
			c2.64,4.93,2.8,10.79,3.13,16.25c0.65,10.68,1.02,23.2,8.7,31.55c4.41,4.79,11.13,7.64,17.4,4.89c5.95-2.61,9.41-8.8,11-14.83
			c1.71-6.48,1.62-13.25,2.22-19.88c0.55-6.03,1.89-12.2,5.92-16.93c9.1-10.66,24.59-12.02,37.64-10.9
			c2.83,0.24,5.99,0.43,8.46,1.74c1.04,0.56,1.48,0.88,2.24,1.69c0.17,0.18,0.33,0.36,0.48,0.55c-0.07-0.09-0.23-0.33,0.04,0.07
			c0.31,0.45,0.58,0.92,0.83,1.41c0.02,0.05,0.31,0.74,0.12,0.24c0.08,0.21,0.16,0.42,0.23,0.64c0.14,0.43,0.26,0.86,0.35,1.29
			c0.05,0.22,0.09,0.43,0.13,0.65c0.02,0.09,0.11,0.81,0.04,0.19c0.06,0.49,0.09,0.98,0.11,1.47c0.07,2-0.15,4.01-0.46,5.98
			c-2.01,12.84-8.15,24.87-17.49,33.92c-7.86,7.62-20.33,17.45-14.96,29.91c2.23,5.18,7.07,8.43,11.41,11.71
			c2.05,1.55,4.07,3.19,5.74,5.16c1.79,2.11,2.91,4.72,3.48,7.41c1.17,5.54-0.45,11.46-4.51,15.44c-3.79,3.72-9.53,5.8-14.82,4.86
			c-5.21-0.92-9.64-3.97-13.82-7.03c-4.45-3.26-8.79-6.72-13.93-8.84c-5.25-2.16-12.51-3.01-16.74,1.62
			c-3.97,4.34-3,10.66-2.24,15.97c0.37,2.6,0.82,5.23,0.71,7.86c-0.1,2.56-0.87,5.07-2.1,7.3c-2.63,4.79-7.2,8.55-12.35,10.36
			c-12.37,4.34-26.61-1.83-35.71-10.32c-4.38-4.08-7.98-9.33-8.29-15.48c-0.29-5.84,1.54-11.52,2.82-17.14
			c1.27-5.57,2.31-11.68,0.06-17.15c-2.19-5.34-6.72-8.55-11.97-10.54c-8.37-3.18-21.93-3.6-23.28-14.72
			c-0.74-6.07,2.12-12.12,5.4-17.04c1.97-2.95,4.23-5.68,6.73-8.2c2.01-2.02,4.27-4.5,6.92-5.65c4.25-1.84,9.17,0.11,11.56,4.13
			C43.96,59.05,48.28,56.54,46.64,53.76z"/>
	</g>
</g>
</svg>
